<svg id="contactos" xmlns="http://www.w3.org/2000/svg" xmlns:xlink="http://www.w3.org/1999/xlink" width="80" height="80" viewBox="0 0 80 80">
  <defs>
    <clipPath id="clip-path">
      <rect id="Rectángulo_2324" data-name="Rectángulo 2324" width="80" height="80"/>
    </clipPath>
  </defs>
  <g id="contactos-2" data-name="contactos" clip-path="url(#clip-path)">
    <g id="Grupo_4194" data-name="Grupo 4194">
      <path id="Trazado_474" data-name="Trazado 474" d="M636.137,773.92h9.379v2.272a2.424,2.424,0,1,0,2.489,2.418v-4.69h21.161v2.272a2.431,2.431,0,1,0,2.463,2.363V773.92h7.04a2.306,2.306,0,0,1,2.306,2.3h0v7.062H633.82v-7.051A2.324,2.324,0,0,1,636.137,773.92ZM676.4,816.414l-40.279-.051a2.308,2.308,0,0,1-2.3-2.3V785.74H680.98l.04,27.988a2.683,2.683,0,0,1-2.678,2.684h0Zm7.045-5.052V776.237a4.791,4.791,0,0,0-4.791-4.791h-7.029v-3.475a1.232,1.232,0,0,0-2.463,0v3.477H648v-3.475a1.243,1.243,0,0,0-2.485,0v3.475h-9.391a4.782,4.782,0,0,0-4.768,4.791v37.819a4.773,4.773,0,0,0,4.767,4.779h42.622a4.709,4.709,0,0,0,4.7-4.7Z" transform="translate(-753.551 696.9) rotate(-90)" fill="#d71920"/>
      <g id="Grupo_4192" data-name="Grupo 4192">
        <g id="Grupo_4185" data-name="Grupo 4185">
          <path id="Trazado_23-2" data-name="Trazado 23-2" d="M1.4,13.818a7.476,7.476,0,0,1,10.038-3.324,7.914,7.914,0,0,1,2.442,1.961,6.7,6.7,0,0,1,.882,1.363c.819,1.4-2.9,3.03-6.647,3.064C4.409,16.918.585,15.166,1.4,13.818ZM5.32,5.036v-.91a2.734,2.734,0,0,1,5.463,0v.91a2.732,2.732,0,1,1-5.462.127c0-.028,0-.056,0-.083Zm10.76,7.645a9.355,9.355,0,0,0-2.741-2.974,9.184,9.184,0,0,0-2.108-1.1A4.551,4.551,0,0,0,12.6,5.343v-.91a4.554,4.554,0,0,0-9.1,0v.91A4.557,4.557,0,0,0,4.867,8.607a9.361,9.361,0,0,0-4.838,4.1c-.59,2.092,8.087,5.01,8.087,5.01S16.3,14.721,16.08,12.681Z" transform="translate(39.182 31.846)" fill="#d71920"/>
          <path id="Trazado_23-2_-_Contorno" data-name="Trazado 23-2 - Contorno" d="M8.117,17.822l-.033-.011c-.014,0-1.439-.485-3.073-1.185-1.8-.428-3.2-1.156-3.66-1.906C.244,13.956-.234,13.269-.067,12.679v-.012l.006-.011A9.483,9.483,0,0,1,4.688,8.569,4.685,4.685,0,0,1,3.4,5.343v-.91A4.654,4.654,0,0,1,7.924-.1H8.05A4.654,4.654,0,0,1,12.7,4.43v.913a4.678,4.678,0,0,1-1.291,3.225A9.29,9.29,0,0,1,13.4,9.625a9.519,9.519,0,0,1,2.771,3.006l.011.018v.021c.056.517-.347,1.1-1.229,1.767-.224.88-1.839,1.775-4.048,2.24-1.489.669-2.739,1.128-2.751,1.133Zm-2.11-1c1.081.433,1.932.728,2.107.788.167-.062.945-.354,1.946-.782a14.269,14.269,0,0,1-1.944.154,12.881,12.881,0,0,1-2.109-.16Zm-.933-.387A12.974,12.974,0,0,0,8,16.783h.11a14.178,14.178,0,0,0,2.724-.3,21.742,21.742,0,0,0,3.93-2.163.677.677,0,0,0-.093-.455v-.006a6.6,6.6,0,0,0-.866-1.339,7.8,7.8,0,0,0-2.414-1.941,7.371,7.371,0,0,0-9.9,3.28v.007a.665.665,0,0,0,.015.711,21.681,21.681,0,0,0,3.568,1.859Zm9.554-1.764a20.465,20.465,0,0,1-2.757,1.555,5.212,5.212,0,0,0,2.757-1.554Zm-12.585.49a6.31,6.31,0,0,0,1.543.819q-.869-.419-1.542-.818ZM.122,12.745c-.119.453.246,1,1.087,1.627a.819.819,0,0,1,.1-.6A7.571,7.571,0,0,1,11.484,10.4a8.084,8.084,0,0,1,2.472,1.984,6.815,6.815,0,0,1,.9,1.382.9.9,0,0,1,.125.394c.7-.56,1.037-1.047,1.007-1.451a9.319,9.319,0,0,0-2.7-2.924A9.088,9.088,0,0,0,11.2,8.7l-.149-.055.114-.111A4.475,4.475,0,0,0,12.5,5.343v-.91a4.454,4.454,0,0,0-8.9,0v.908A4.482,4.482,0,0,0,4.936,8.536l.113.11L4.9,8.7A9.282,9.282,0,0,0,.122,12.745Zm7.93-4.814A2.832,2.832,0,0,1,5.221,5.166c0-.03,0-.059,0-.088V4.126a2.834,2.834,0,0,1,5.663,0v.915a2.835,2.835,0,0,1-2.766,2.89Zm0-6.316A2.629,2.629,0,0,0,5.42,4.13V5.159a2.632,2.632,0,1,0,5.262-.122V4.126A2.622,2.622,0,0,0,8.171,1.618Z" transform="translate(39.182 31.846)" fill="#d71920"/>
        </g>
        <g id="Grupo_4186" data-name="Grupo 4186">
          <path id="Elipse_1" data-name="Elipse 1" d="M12,2.2A9.8,9.8,0,1,0,21.8,12,9.8,9.8,0,0,0,12,2.2M12,0A12,12,0,1,1,0,12,12,12,0,0,1,12,0Z" transform="translate(35.252 50.497) rotate(-90)" fill="#d71920"/>
        </g>
      </g>
    </g>
  </g>
</svg>
