<svg xmlns="http://www.w3.org/2000/svg" width="67.752" height="58.017" viewBox="0 0 67.752 58.017">
  <g id="Grupo_1119" data-name="Grupo 1119" transform="translate(-231.029 -1566.637)">
    <path id="Trazado_547" data-name="Trazado 547" d="M139.07,617.87h47.973l8.812,17.817s-.2,8.225-8.42,8.029c0,0-6.853-1.762-7.636-5.678a10.587,10.587,0,0,1-9.008,5.678s-5.678-1.37-7.832-6.266a7.573,7.573,0,0,1-8.42,6.069s-6.062.706-7.535-7.674c0,0-1.668,10.025-10.283,7.871,0,0-6.266-1.175-5.679-9.4Z" transform="translate(102 950)" fill="#e3acb8"/>
    <rect id="Rectángulo_59" data-name="Rectángulo 59" width="5.38" height="7.833" transform="translate(262.415 1605.062)" fill="#e3acb8"/>
    <path id="Trazado_608" data-name="Trazado 608" d="M154.687,674.412h16.447c.119,0,.238-.011.347-.021Z" transform="translate(102 950)" fill="#424242"/>
    <path id="Trazado_609" data-name="Trazado 609" d="M154.687,674.412h16.447c.119,0,.238-.011.347-.021Z" transform="translate(102 950)" fill="#424242"/>
    <path id="Trazado_610" data-name="Trazado 610" d="M171.175,674.481H154.922a3.216,3.216,0,0,1-3.212-3.212V655.945a3.217,3.217,0,0,1,3.212-3.213h16.253a3.217,3.217,0,0,1,3.212,3.213V671.27a3.216,3.216,0,0,1-3.212,3.211m-16.253-19.466a.931.931,0,0,0-.929.93V671.27a.932.932,0,0,0,.929.931h16.253a.93.93,0,0,0,.929-.931V655.946a.93.93,0,0,0-.929-.93Z" transform="translate(102 950)" fill="#d71920"/>
    <path id="Trazado_611" data-name="Trazado 611" d="M166.214,652.77h-5.886a1.117,1.117,0,0,0-1.112,1.113v8.734a1.1,1.1,0,0,0,.635,1.132,1.36,1.36,0,0,0,1.34-.238l2.055-1.371,1.9,1.261a3.014,3.014,0,0,0,.427.279,1.5,1.5,0,0,0,.684.177,1.022,1.022,0,0,0,.814-.377,1.288,1.288,0,0,0,.258-.942v-8.655a1.117,1.117,0,0,0-1.115-1.113m-1.112,2.224v5.747l-1.856-1.24-1.817,1.211v-5.718Z" transform="translate(102 950)" fill="#d71920"/>
    <path id="Trazado_612" data-name="Trazado 612" d="M195.333,672.129h-2.77V643.353a9.394,9.394,0,0,0,4.218-7.841,1.191,1.191,0,0,0-.168-.605l-7.832-16.582a3.34,3.34,0,0,0-2.909-1.688H139.926a3.349,3.349,0,0,0-2.938,1.728l-7.8,16.525a1.216,1.216,0,0,0-.159.626,9.383,9.383,0,0,0,4.209,7.841v28.776h-2.769a1.261,1.261,0,0,0-.072,2.521h64.938a1.26,1.26,0,0,0,0-2.521Zm-63.1-37.491,6.959-15.066a.828.828,0,0,1,.734-.417h45.949a.864.864,0,0,1,.726.4l6.957,15.087c.01.01.01.022.02.04H132.223c0-.01.011-.033.011-.043Zm45.53,2.444a6.9,6.9,0,0,1-13.429,0Zm-16.308,0a6.9,6.9,0,0,1-13.429,0Zm-29.727,0h13.419a6.892,6.892,0,0,1-13.419,0m39.4,37.331H154.686l16.794-.022c-.106.01-.227.021-.347.021Zm18.908-2.284H135.757V644.536a9.427,9.427,0,0,0,10.83-4.319,9.418,9.418,0,0,0,16.308,0,9.416,9.416,0,0,0,16.307,0,9.417,9.417,0,0,0,8.159,4.7,9.623,9.623,0,0,0,2.681-.388ZM187.361,642.4a6.96,6.96,0,0,1-6.72-5.318h13.42a6.9,6.9,0,0,1-6.7,5.318" transform="translate(102 950)" fill="#d71920"/>
  </g>
</svg>
