<svg id="Capa_1" data-name="Capa 1" xmlns="http://www.w3.org/2000/svg" viewBox="0 0 80 80"><defs><style>.cls-1{fill:#e3acb8;}.cls-2{fill:#d71920;}</style></defs><ellipse class="cls-1" cx="28.69" cy="37.74" rx="8.97" ry="8.71"/><path class="cls-2" d="M60.2,25.26h0a1.61,1.61,0,0,0-.12-.33s0-.05,0-.08a1.46,1.46,0,0,0-.21-.28L48,12.73a1.42,1.42,0,0,0-.29-.21l-.07,0a1.31,1.31,0,0,0-.59-.14H11.4a1.34,1.34,0,0,0-1.34,1.34V78a1.34,1.34,0,0,0,1.34,1.34H58.88A1.34,1.34,0,0,0,60.22,78V25.52A2.11,2.11,0,0,0,60.2,25.26ZM48.38,16.91l.93.93,6.34,6.34H48.38ZM12.74,76.64V15h33V25.52A1.34,1.34,0,0,0,47,26.86h10.5V76.64Z"/><path class="cls-2" d="M47,53.7h-27a1.47,1.47,0,0,0,0,2.93H47a1.47,1.47,0,0,0,0-2.93Z"/><path class="cls-2" d="M47,61.54h-27a1.47,1.47,0,0,0,0,2.93H47a1.47,1.47,0,0,0,0-2.93Z"/><path class="cls-2" d="M72,13.58h0a1.31,1.31,0,0,0-.12-.33.25.25,0,0,0,0-.07,1.19,1.19,0,0,0-.21-.29L59.83,1.05a1.19,1.19,0,0,0-.29-.21l-.07,0a1.31,1.31,0,0,0-.59-.14H23.24A1.34,1.34,0,0,0,21.9,2V9.27h0a1.34,1.34,0,0,0,2.68,0h0V3.34h33v10.5a1.34,1.34,0,0,0,1.34,1.34H69.39V65H64.05a1.34,1.34,0,0,0,0,2.67h6.68a1.34,1.34,0,0,0,1.33-1.34V13.84A1.1,1.1,0,0,0,72,13.58ZM60.22,12.5V5.23l.93.93,6.34,6.34Z"/><path class="cls-2" d="M38.46,38A9.94,9.94,0,1,1,28.52,28,9.94,9.94,0,0,1,38.46,38Zm-1.87,0A8.07,8.07,0,1,0,28.52,46,8.09,8.09,0,0,0,36.59,38Zm-4.7,2.26a2.66,2.66,0,0,1-2.43,2v.66a.93.93,0,0,1-1.86,0v-.7A10.29,10.29,0,0,1,26,41.78l-.24-.08a.93.93,0,0,1,.58-1.77l.25.09a7.5,7.5,0,0,0,1.44.39c1.07.16,1.95-.07,2-.54s-.07-.57-1.78-1L28,38.76c-1-.26-3.21-.87-2.79-3.07a2.67,2.67,0,0,1,2.44-2V33a.93.93,0,0,1,1.86,0v.7a8,8,0,0,1,1.21.31.93.93,0,0,1-.57,1.77A7,7,0,0,0,29,35.5c-1.07-.15-1.95.08-2,.54,0,.27-.1.51,1.45.93l.32.09C30.09,37.4,32.31,38,31.89,40.22Z"/></svg>